<?xml version="1.0" standalone="no"?>
<!DOCTYPE svg PUBLIC "-//W3C//DTD SVG 20010904//EN"
 "http://www.w3.org/TR/2001/REC-SVG-20010904/DTD/svg10.dtd">
<svg version="1.0" xmlns="http://www.w3.org/2000/svg"
 width="640.000000pt" height="640.000000pt" viewBox="0 0 640.000000 640.000000"
 preserveAspectRatio="xMidYMid meet">
<metadata>
Created by potrace 1.11, written by Peter Selinger 2001-2013
</metadata>
<g transform="translate(0.000000,640.000000) scale(0.100000,-0.100000)"
fill="#000000" stroke="none">
<path d="M0 3200 l0 -3200 3200 0 3200 0 0 3200 0 3200 -336 0 c-314 0 -417
-9 -253 -23 43 -4 78 -12 88 -22 10 -8 24 -15 32 -16 8 0 28 -9 44 -20 17 -10
47 -26 68 -35 23 -10 37 -23 37 -34 0 -10 18 -36 40 -58 27 -26 40 -48 40 -65
0 -15 9 -36 19 -46 11 -11 22 -37 26 -58 3 -21 10 -51 17 -68 15 -43 21 -353
7 -387 -6 -15 -12 -81 -13 -145 -3 -148 -13 -315 -26 -413 -5 -41 -9 -98 -9
-126 1 -29 -4 -61 -11 -73 -6 -12 -8 -26 -4 -32 5 -9 16 -97 16 -134 0 -5 -5
-54 -11 -108 -6 -54 -8 -123 -5 -154 5 -40 3 -57 -6 -63 -10 -6 -11 -17 -2
-52 7 -27 9 -85 5 -152 -4 -78 -3 -110 6 -115 9 -6 8 -17 -2 -47 -8 -23 -12
-66 -10 -104 2 -36 5 -247 7 -470 13 -1308 15 -1416 25 -1443 12 -32 13 -135
2 -214 -4 -29 -3 -59 1 -67 5 -9 4 -24 -2 -36 -6 -11 -7 -20 -3 -20 4 0 8 -55
9 -122 0 -68 3 -224 6 -348 3 -124 1 -256 -3 -295 -4 -38 -10 -111 -13 -160
-7 -136 -65 -328 -103 -342 -7 -3 -27 -18 -44 -34 -17 -16 -34 -27 -38 -24 -5
2 -21 -9 -36 -25 -18 -19 -39 -30 -56 -30 -15 0 -35 -7 -43 -16 -20 -19 -136
-35 -241 -32 -111 3 -167 0 -174 -9 -9 -12 -491 -14 -491 -3 0 10 -31 6 -70
-7 -8 -2 -98 -7 -199 -10 -102 -2 -192 -8 -200 -12 -29 -16 -644 -18 -649 -3
-3 9 -162 -9 -162 -18 0 -11 -120 -4 -132 8 -14 14 -108 16 -108 2 0 -5 -10
-9 -22 -9 -13 1 -31 -2 -40 -6 -11 -4 -18 -3 -18 5 0 7 -8 9 -22 4 -13 -4 -47
-7 -77 -6 -30 2 -60 -3 -68 -10 -11 -9 -22 -9 -48 1 -54 19 -651 32 -664 14
-3 -5 -42 -6 -86 -4 -74 5 -77 5 -35 12 25 4 -36 5 -135 2 -100 -3 -191 -1
-204 4 -14 6 -45 6 -75 1 -50 -8 -246 -12 -461 -10 -60 0 -121 1 -135 1 -14 0
-88 2 -165 5 -224 9 -458 17 -483 17 -13 -1 -31 3 -40 8 -9 5 -38 6 -63 2 -40
-6 -50 -4 -73 16 -15 13 -38 23 -50 23 -48 0 -167 84 -196 139 -25 46 -45 71
-57 71 -11 0 -35 69 -27 81 2 4 -1 20 -7 36 -6 15 -13 37 -16 48 -10 38 -24
320 -18 379 4 47 2 63 -12 78 -15 17 -15 18 0 18 13 0 17 9 17 40 0 22 -5 40
-10 40 -7 0 -7 6 -2 18 10 20 8 158 -3 185 -4 9 -4 39 0 65 13 78 13 84 4 167
-4 44 -5 125 -1 180 5 55 4 127 0 160 -5 33 -4 170 0 305 5 135 6 281 1 325
-5 48 -4 84 2 91 5 6 7 18 3 27 -3 8 -1 18 5 21 6 4 7 14 4 22 -5 14 -3 15 18
5 l24 -12 -21 18 c-16 14 -19 24 -13 40 6 17 5 21 -5 17 -21 -8 -29 13 -27 69
0 32 7 57 18 69 16 18 16 19 -12 8 l-30 -10 24 20 c14 12 18 20 10 20 -8 0
-20 10 -28 23 -13 21 -13 21 5 7 46 -35 63 -54 57 -64 -3 -6 -2 -8 2 -3 5 4
19 -3 32 -15 22 -21 22 -22 4 -35 -24 -16 -54 -6 -46 15 3 9 2 13 -2 8 -10
-10 -11 -96 -1 -89 5 2 6 9 3 14 -9 13 7 10 29 -6 10 -8 15 -19 10 -26 -4 -7
-3 -10 4 -6 14 10 43 -3 36 -15 -3 -5 -18 -7 -33 -4 -17 5 -21 4 -12 -2 11 -8
11 -10 0 -15 -24 -10 28 -45 98 -67 62 -19 68 -19 127 -4 78 20 152 63 224
128 48 44 61 52 82 46 14 -4 78 -13 142 -20 l116 -13 -49 -39 c-27 -21 -66
-64 -86 -96 -20 -31 -45 -69 -55 -84 -10 -16 -14 -28 -9 -28 31 0 188 43 224
61 49 26 174 117 201 148 16 18 30 21 90 21 98 0 348 18 421 31 101 17 234 49
329 80 49 16 91 29 92 29 1 0 -5 -19 -13 -42 -44 -125 -173 -611 -173 -651 0
-29 18 -47 45 -47 12 0 88 34 170 75 81 41 158 75 171 75 24 0 40 15 25 24
-13 8 -109 -22 -156 -49 -113 -64 -178 -95 -200 -95 -21 0 -25 5 -25 29 0 33
57 258 124 491 57 200 62 211 81 204 12 -5 15 2 15 30 0 45 -23 49 -44 8 -19
-36 -92 -64 -316 -122 -47 -13 -140 -12 -176 0 -17 6 -41 28 -57 55 -27 42
-28 48 -18 93 7 35 7 59 -1 85 -12 40 -65 95 -116 121 -38 20 -38 19 -22 -82
12 -73 28 -103 81 -153 42 -38 90 -105 83 -112 -5 -5 -81 18 -107 33 -10 6
-22 8 -27 5 -5 -3 -17 -1 -27 5 -10 5 -43 19 -73 30 -30 11 -98 41 -150 67
l-95 48 -17 55 c-21 64 -55 104 -131 153 -42 27 -45 13 -13 -46 34 -62 71
-103 109 -123 15 -8 27 -19 27 -25 0 -6 -36 10 -81 34 -61 34 -92 59 -130 105
-53 66 -128 116 -220 148 -30 10 -61 19 -69 21 -8 1 -33 7 -55 12 -59 15 -60
14 -30 -26 80 -108 253 -216 365 -229 39 -4 92 -24 178 -68 122 -61 122 -61
85 -66 -21 -3 -64 1 -96 9 -52 12 -64 12 -144 -8 -80 -19 -141 -46 -130 -57 2
-3 30 7 62 21 63 27 176 42 213 28 22 -8 18 -12 -44 -43 -76 -39 -144 -47
-209 -25 -25 9 -43 11 -49 5 -19 -19 7 -25 107 -25 99 0 104 1 176 38 94 50
161 58 223 29 23 -12 56 -24 71 -28 48 -11 12 -31 -88 -48 -49 -9 -121 -28
-160 -42 -38 -15 -88 -27 -110 -27 -47 0 -276 30 -283 38 -3 3 -7 13 -8 23
-16 111 -49 176 -126 248 -66 60 -165 114 -210 114 -30 0 -32 -6 -19 -62 l9
-37 -42 5 c-49 6 -96 -6 -110 -29 -8 -13 -4 -23 19 -47 l29 -30 -40 0 c-22 0
-44 -4 -50 -9 -5 -5 -20 -12 -34 -16 l-25 -6 25 20 c14 11 19 21 13 21 -16 0
-17 42 -2 111 8 35 14 47 20 38 4 -8 6 15 3 51 -10 127 -11 481 -2 468 6 -8 7
8 2 42 -4 30 -8 271 -9 535 -1 264 -5 495 -9 513 -5 21 -3 38 5 48 10 12 9 20
-1 39 -8 14 -14 56 -15 93 -5 218 -35 552 -49 552 -5 0 -1 7 10 15 19 14 19
14 -1 15 -20 1 -20 1 -1 15 20 15 20 15 0 15 -12 0 -15 3 -7 8 8 5 11 66 11
207 0 198 6 275 23 275 5 0 9 6 9 13 0 8 11 24 24 36 13 13 27 38 30 56 7 37
55 95 79 95 9 0 23 10 32 23 11 13 19 17 22 10 7 -19 64 18 58 38 -4 12 3 18
25 22 16 4 30 11 30 16 0 5 -91 10 -215 10 l-215 2 0 -3201z m632 139 c89 -19
196 -76 249 -132 27 -28 47 -53 45 -54 -3 -4 -277 146 -286 156 -3 3 -21 14
-40 23 -42 20 -37 21 32 7z m42 -68 c44 -26 116 -67 159 -91 43 -23 77 -44 75
-46 -8 -7 -84 18 -145 47 -52 25 -197 139 -177 139 3 0 43 -22 88 -49z m359
-63 c35 -18 110 -128 88 -128 -15 0 -79 66 -101 103 -23 40 -21 44 13 25z
m-560 -34 c52 -27 177 -144 177 -166 0 -6 -28 16 -62 48 -65 62 -140 117 -180
134 -18 7 -19 9 -5 9 10 1 41 -11 70 -25z m-5 -41 c105 -69 228 -200 207 -221
-3 -4 -9 -2 -13 4 -15 21 -99 83 -141 103 -25 11 -58 21 -73 21 -26 0 -32 7
-54 55 -43 97 -28 105 74 38z m1053 24 c68 -46 99 -131 68 -189 -10 -19 -12
-18 -45 17 -19 21 -38 54 -42 74 -5 20 -14 55 -19 79 -6 23 -7 42 -3 42 4 0
22 -10 41 -23z m-1133 -94 c11 -15 10 -19 -5 -24 -47 -16 -153 19 -153 51 0 3
33 3 72 -2 51 -5 77 -12 86 -25z m114 -55 c42 -10 198 -131 186 -143 -2 -3
-33 6 -69 20 -79 32 -160 54 -369 104 -31 8 -25 16 9 12 7 -2 10 2 7 8 -7 10
197 9 236 -1z m-257 -39 c22 -6 85 -21 140 -34 139 -32 205 -52 260 -76 41
-18 45 -23 33 -35 -8 -8 -23 -16 -34 -19 -10 -2 -37 -9 -59 -14 -58 -15 -134
-12 -180 5 -22 9 -58 23 -81 31 -26 9 -67 40 -110 84 -67 68 -68 69 -39 69 17
0 48 -5 70 -11z m1211 -90 c64 -22 96 -30 189 -50 l60 -12 -85 -13 c-47 -7
-143 -13 -215 -13 l-130 -1 57 55 c31 30 58 55 61 55 2 0 30 -9 63 -21z m-126
-5 c0 -20 -201 -191 -285 -242 -44 -27 -210 -80 -220 -70 -10 10 97 148 140
181 78 60 201 107 323 122 13 2 26 6 30 9 7 8 12 8 12 0z m-1052 -48 c15 -8
40 -18 57 -21 l29 -6 -43 -20 c-43 -19 -44 -19 -77 2 -39 24 -40 27 -16 45 21
17 19 17 50 0z m340 -55 c-52 -41 -307 -96 -362 -78 l-27 9 52 34 c63 40 93
47 139 34 47 -14 128 -11 170 5 49 19 56 18 28 -4z m-58 -50 c0 -11 -81 -46
-140 -60 -28 -7 -56 -8 -75 -3 -28 9 -26 10 28 17 43 6 145 35 185 54 1 0 2
-3 2 -8z"/>
<path d="M2577 4488 c-9 -18 -30 -69 -47 -113 -18 -44 -41 -102 -52 -130 -25
-63 -33 -73 -75 -90 -51 -22 -31 -35 53 -35 59 0 74 3 74 15 0 8 -7 15 -15 15
-42 0 -15 93 32 111 33 13 93 5 105 -13 16 -26 9 -83 -12 -96 -35 -21 -12 -32
66 -32 81 0 96 13 46 41 -25 14 -33 33 -71 170 -24 85 -48 162 -53 172 -13 26
-34 20 -51 -15z m39 -109 c7 -19 13 -44 13 -56 1 -20 -4 -23 -40 -23 l-41 0 7
36 c9 48 26 85 39 81 5 -2 15 -19 22 -38z"/>
<path d="M2055 4493 c-53 -28 -72 -80 -49 -129 12 -25 34 -42 91 -71 83 -42
114 -72 106 -104 -5 -20 -50 -49 -75 -49 -39 0 -90 23 -100 46 -16 34 -28 30
-28 -10 0 -30 4 -36 40 -50 125 -50 256 35 206 133 -11 21 -36 39 -83 62 -84
39 -113 65 -113 99 0 75 137 83 162 9 7 -20 28 0 28 26 0 50 -118 74 -185 38z"/>
<path d="M2920 4504 c0 -3 9 -17 20 -31 18 -23 20 -41 20 -164 0 -122 -2 -139
-18 -151 -42 -30 -35 -38 33 -38 l67 0 -26 31 c-24 28 -26 38 -26 117 0 87 7
133 19 131 3 0 33 -34 66 -75 126 -158 171 -209 188 -212 15 -3 17 12 16 169
0 159 2 173 21 194 11 12 20 24 20 28 0 4 -27 7 -60 7 -63 0 -74 -8 -39 -31
18 -13 21 -27 26 -135 4 -81 2 -123 -5 -128 -6 -4 -57 55 -121 138 -67 88
-119 146 -133 150 -29 7 -68 8 -68 0z"/>
<path d="M3480 4502 c0 -4 9 -16 21 -25 19 -17 20 -27 17 -164 -3 -138 -4
-146 -25 -161 -13 -8 -23 -18 -23 -23 0 -5 55 -9 123 -9 115 0 125 2 163 26
59 38 87 85 92 155 7 92 -25 151 -100 190 -30 15 -59 19 -153 19 -63 0 -115
-3 -115 -8z m244 -43 c87 -68 89 -234 3 -294 -22 -15 -111 -21 -141 -9 -24 9
-24 279 1 306 23 26 102 25 137 -3z"/>
<path d="M4000 4496 c0 -8 11 -18 25 -23 13 -4 49 -41 80 -82 l55 -75 0 -73
c0 -68 -2 -74 -24 -85 -14 -6 -27 -17 -30 -24 -4 -11 11 -14 74 -14 44 0 80 3
80 6 0 3 -12 15 -26 26 -25 20 -25 24 -20 97 4 41 13 85 20 96 32 48 109 124
129 127 12 2 23 11 25 21 3 16 -4 18 -74 15 -51 -2 -79 -7 -82 -15 -2 -7 2
-13 10 -13 30 -1 41 -16 28 -41 -14 -28 -60 -79 -71 -79 -4 0 -24 23 -44 51
-33 47 -35 52 -21 68 23 25 11 31 -66 31 -52 0 -68 -3 -68 -14z"/>
<path d="M1364 3831 c-11 -11 -2 -29 20 -39 25 -11 25 -12 25 -159 0 -139 -1
-149 -21 -164 -36 -28 -13 -36 96 -35 101 2 107 3 135 30 48 46 48 121 0 172
-18 19 -20 26 -9 38 6 9 16 32 20 52 8 32 5 40 -24 71 l-32 35 -103 1 c-56 1
-105 0 -107 -2z m204 -43 c7 -7 12 -29 12 -49 0 -47 -38 -82 -84 -77 -30 3
-31 5 -34 57 -2 29 -1 60 2 67 7 18 87 19 104 2z m25 -189 c53 -65 -26 -160
-108 -129 -25 9 -26 13 -23 82 3 68 5 73 28 78 34 9 82 -6 103 -31z"/>
<path d="M2442 3823 c-5 -10 -35 -83 -67 -163 -62 -156 -73 -175 -111 -184
-13 -4 -24 -13 -24 -21 0 -12 15 -15 75 -15 58 0 75 3 75 14 0 8 -9 18 -20 21
-26 8 -25 34 3 76 20 30 29 34 71 37 56 4 72 -7 78 -50 4 -24 -1 -38 -19 -56
-13 -13 -21 -28 -18 -33 4 -5 40 -9 81 -9 58 0 74 3 74 14 0 8 -9 18 -20 21
-29 9 -47 41 -64 117 -16 70 -50 186 -66 226 -11 26 -36 29 -48 5z m42 -168
c1 -28 -2 -30 -36 -33 -42 -4 -44 0 -27 63 18 64 31 74 47 34 8 -19 15 -47 16
-64z"/>
<path d="M2784 3829 c-3 -5 4 -21 15 -35 19 -24 21 -40 21 -160 0 -128 -1
-134 -25 -160 -14 -15 -25 -29 -25 -30 0 -2 27 -4 60 -4 64 0 72 8 40 40 -17
17 -20 33 -20 108 0 87 7 132 19 132 3 0 42 -46 86 -101 107 -136 155 -189
171 -189 10 0 13 34 12 170 -2 162 -1 170 20 193 12 13 22 26 22 30 0 4 -27 7
-60 7 -63 0 -73 -8 -40 -31 17 -12 20 -29 25 -129 3 -63 1 -121 -3 -128 -6 -9
-41 29 -120 131 -100 130 -116 146 -152 155 -24 6 -42 6 -46 1z"/>
<path d="M3456 3825 c-134 -47 -183 -227 -90 -327 81 -85 229 -92 267 -12 20
42 21 44 4 44 -7 0 -26 -13 -42 -30 -62 -65 -145 -47 -189 41 -65 132 8 282
129 264 47 -7 85 -39 85 -72 0 -38 28 -28 36 14 5 29 3 39 -12 51 -56 42 -120
52 -188 27z"/>
<path d="M4465 3832 c-125 -3 -162 -14 -108 -32 29 -10 31 -14 37 -79 3 -38 3
-103 0 -144 -6 -62 -11 -80 -30 -98 -13 -13 -24 -26 -24 -31 0 -4 60 -8 134
-8 146 0 146 0 146 61 0 35 -13 38 -28 4 -13 -29 -48 -40 -99 -32 -47 8 -54
20 -51 87 l3 55 49 3 c38 3 53 -1 70 -17 28 -27 36 -19 36 36 0 45 -9 53 -30
28 -8 -10 -30 -15 -61 -15 -55 0 -69 15 -69 74 0 75 77 102 130 46 15 -16 30
-26 34 -23 11 12 6 81 -6 84 -7 2 -67 3 -133 1z"/>
<path d="M1820 3823 c0 -3 8 -15 18 -26 14 -16 18 -43 20 -158 3 -138 3 -139
-22 -162 -14 -14 -26 -27 -26 -31 0 -3 37 -6 83 -6 l82 0 -33 31 -33 31 3 146
c3 147 3 147 27 150 90 13 121 -122 38 -164 -18 -9 -34 -18 -36 -20 -5 -4 98
-145 118 -161 22 -19 91 -17 91 2 0 8 -8 15 -18 15 -28 0 -60 27 -97 83 l-35
52 25 19 c33 23 55 67 55 106 0 75 -43 100 -170 100 -49 0 -90 -3 -90 -7z"/>
<path d="M3790 3824 c0 -4 11 -17 25 -30 22 -21 25 -31 24 -96 -1 -131 -13
-219 -32 -230 -30 -16 -8 -28 54 -28 63 0 77 14 39 38 -16 10 -20 23 -20 67 0
68 11 75 118 75 91 0 92 -1 92 -80 0 -38 -5 -52 -21 -64 -33 -22 -14 -36 51
-36 68 0 81 11 44 35 l-26 17 4 144 c3 135 5 145 26 159 36 26 26 35 -43 35
-49 0 -65 -3 -65 -14 0 -8 7 -17 15 -20 13 -5 15 -20 13 -73 l-3 -68 -88 -3
c-112 -4 -121 3 -114 78 4 40 11 59 26 69 36 23 23 31 -49 31 -38 0 -70 -3
-70 -6z"/>
<path d="M4840 3814 c-40 -27 -50 -45 -50 -89 0 -51 26 -78 121 -123 69 -33
92 -62 78 -98 -10 -30 -64 -46 -112 -35 -35 8 -66 33 -67 54 0 4 -4 7 -10 7
-5 0 -10 -13 -10 -30 0 -79 172 -93 234 -19 51 60 26 114 -77 165 -90 45 -107
60 -107 95 0 36 33 59 83 59 30 0 44 -7 67 -32 24 -26 30 -29 35 -15 11 27 1
51 -25 64 -36 18 -130 16 -160 -3z"/>
<path d="M1104 3329 c3 -17 13 -47 22 -67 72 -162 99 -194 207 -248 40 -20 93
-57 120 -82 26 -25 47 -42 47 -36 0 6 -14 23 -31 40 -17 16 -51 69 -75 118
-54 106 -89 158 -141 208 -34 32 -134 98 -150 98 -3 0 -3 -14 1 -31z m84 -33
c20 -13 53 -41 73 -63 35 -38 111 -160 126 -200 6 -16 4 -16 -16 2 -48 42
-240 285 -225 285 2 0 21 -11 42 -24z m-11 -55 c28 -38 62 -80 126 -153 33
-38 57 -68 54 -68 -13 0 -98 54 -122 78 -27 26 -87 138 -100 184 -6 23 -6 23
9 3 9 -11 24 -31 33 -44z"/>
<path d="M170 3061 c0 -6 4 -13 10 -16 6 -3 7 1 4 9 -7 18 -14 21 -14 7z"/>
<path d="M4170 2981 c0 -5 -16 -15 -36 -21 -86 -29 -154 -134 -138 -215 9 -50
20 -35 27 34 3 38 13 69 27 89 22 30 97 78 106 69 7 -7 -53 -312 -66 -337 -5
-10 -10 -33 -10 -50 0 -16 -12 -88 -26 -158 -31 -155 -41 -266 -25 -276 15
-10 38 41 24 55 -7 7 -4 43 8 112 17 104 49 260 52 263 1 1 25 13 53 27 27 14
75 46 105 70 53 43 56 44 87 31 45 -19 72 -68 72 -132 0 -132 -121 -263 -267
-287 -60 -11 -74 -16 -67 -26 8 -13 73 -2 142 23 82 30 145 87 182 161 38 77
46 127 30 186 -11 43 -61 101 -87 101 -19 0 -16 12 12 61 16 29 25 60 25 89 0
75 -40 112 -135 125 -28 3 -60 8 -72 11 -13 2 -23 0 -23 -5z m158 -51 c62 -38
67 -103 13 -177 -25 -34 -36 -41 -75 -45 -25 -3 -64 -15 -87 -26 -24 -12 -44
-20 -45 -19 -1 1 8 49 21 107 12 58 26 122 29 143 l7 37 52 0 c34 0 63 -7 85
-20z m-48 -247 c-1 -18 -148 -108 -158 -98 -17 17 43 68 104 90 46 17 54 18
54 8z"/>
<path d="M4637 2942 c-8 -9 -23 -35 -32 -57 -32 -76 -155 -621 -155 -685 0
-11 7 -20 15 -20 11 0 15 11 15 36 0 86 96 496 130 554 51 88 74 170 51 184
-4 3 -15 -2 -24 -12z"/>
<path d="M3570 2876 c-5 -15 -13 -44 -16 -65 l-6 -38 -67 -7 c-36 -3 -85 -6
-108 -6 -24 0 -43 -4 -43 -10 0 -6 40 -10 100 -10 114 0 108 8 84 -101 -13
-58 -26 -85 -57 -122 -40 -49 -71 -72 -85 -63 -5 3 -6 28 -2 56 7 55 1 60 -37
30 -38 -29 -71 -26 -91 10 -9 16 -21 29 -25 27 -5 -1 -16 -26 -26 -54 -19 -57
-65 -128 -87 -137 -20 -8 -18 24 7 123 11 45 18 86 14 89 -4 4 -10 2 -12 -4
-8 -23 -79 -112 -111 -138 -45 -39 -66 -32 -70 22 -3 39 1 48 37 87 41 45 54
85 26 85 -18 0 -50 -34 -64 -69 -9 -21 -99 -95 -133 -109 -4 -2 -5 24 -2 57 4
34 3 61 -2 61 -5 0 -22 -20 -39 -45 -30 -44 -54 -61 -40 -27 4 9 11 32 16 49
11 37 33 53 62 45 14 -3 18 -1 15 9 -7 20 -47 23 -67 5 -10 -9 -26 -36 -37
-59 -22 -52 -52 -97 -64 -97 -6 0 -20 21 -32 47 -26 54 -39 61 -63 36 -17 -17
-18 -16 -11 20 9 48 -6 48 -27 -1 -16 -36 -42 -58 -77 -64 -10 -2 -16 9 -20
37 -6 50 -25 55 -67 16 -36 -32 -43 -72 -19 -103 17 -23 51 -23 68 0 7 11 24
21 38 24 14 3 33 9 42 13 15 6 16 3 8 -27 -26 -89 -2 -88 43 2 18 35 37 65 42
67 6 1 19 -17 30 -40 22 -46 47 -57 74 -33 14 12 20 13 30 3 10 -9 19 -5 43
22 l30 34 -7 -44 c-6 -35 -19 -56 -64 -104 -107 -112 -164 -245 -147 -338 4
-22 15 -41 27 -48 61 -32 137 111 184 346 18 88 19 91 66 128 69 54 74 54 75
6 0 -44 21 -69 56 -69 10 0 40 21 67 48 l49 47 -5 -62 c-6 -69 6 -85 47 -63
24 13 90 111 90 135 0 19 4 19 40 0 21 -11 36 -12 55 -5 36 14 35 14 35 -23 0
-34 15 -57 37 -57 7 0 34 19 58 41 25 23 45 39 45 37 0 -3 -13 -70 -29 -149
-36 -178 -45 -245 -36 -260 11 -17 25 9 25 47 0 48 112 589 124 601 2 2 89 5
195 6 105 1 191 5 191 8 0 15 -41 19 -206 19 -96 0 -174 3 -174 8 0 4 7 29 15
56 17 55 4 91 -15 42z m-1180 -337 c0 -11 -4 -17 -10 -14 -5 3 -10 13 -10 21
0 8 5 14 10 14 6 0 10 -9 10 -21z m-16 -61 c-17 -27 -49 7 -37 38 5 14 9 13
24 -7 9 -13 15 -27 13 -31z m352 -206 c-34 -133 -61 -202 -92 -235 -30 -33
-44 -31 -57 7 -20 61 50 223 136 314 18 18 33 28 35 22 2 -5 -8 -54 -22 -108z"/>
<path d="M3367 2623 c-12 -11 -8 -23 8 -23 8 0 15 7 15 15 0 16 -12 20 -23 8z"/>
<path d="M5262 2592 c-15 -15 -36 -40 -46 -55 -23 -32 -64 -46 -77 -26 -5 8
-9 26 -9 42 0 43 -25 32 -51 -23 -13 -27 -27 -50 -31 -50 -5 0 -8 20 -8 45 0
58 -22 60 -50 4 -27 -52 -35 -46 -15 11 8 23 15 49 15 56 0 22 -18 16 -26 -8
-9 -30 -33 -57 -67 -74 -30 -16 -29 -16 -41 39 -10 44 -32 44 -84 0 -26 -22
-57 -43 -70 -47 -19 -6 -22 -4 -22 19 0 32 -17 65 -33 65 -35 -1 -79 -64 -70
-101 13 -52 46 -64 78 -29 10 11 27 20 37 20 11 0 28 5 38 10 16 8 21 5 32
-17 16 -35 48 -40 73 -13 10 11 28 20 39 20 12 0 32 8 46 17 23 16 23 16 16
-3 -4 -10 -10 -36 -13 -58 -8 -55 13 -44 57 30 35 59 35 59 38 27 3 -35 22
-56 38 -45 6 4 20 25 32 47 l20 40 7 -28 c10 -38 48 -46 87 -17 16 12 31 20
32 18 2 -1 18 -31 36 -64 l33 -62 -32 -50 c-18 -28 -33 -63 -34 -79 -2 -24 2
-28 23 -28 34 0 70 56 70 109 0 37 8 52 70 126 39 46 70 88 70 92 0 22 -26 1
-81 -67 -34 -41 -65 -75 -68 -75 -13 0 -61 102 -61 130 0 33 36 65 64 54 11
-4 16 -1 16 10 0 27 -48 19 -78 -12z m-602 -64 c0 -5 -4 -8 -10 -8 -5 0 -10
10 -10 23 0 18 2 19 10 7 5 -8 10 -18 10 -22z m167 0 c-3 -7 -5 -2 -5 12 0 14
2 19 5 13 2 -7 2 -19 0 -25z m-184 -50 c-2 -5 -13 -8 -24 -8 -13 0 -19 7 -19
23 0 13 3 26 6 30 8 8 44 -35 37 -45z m180 0 c-2 -5 -13 -8 -24 -8 -13 0 -19
7 -19 23 0 13 3 26 6 30 8 8 44 -35 37 -45z m487 -150 c0 -20 -43 -84 -47 -71
-2 6 6 28 19 47 25 40 28 42 28 24z"/>
<path d="M3574 2573 c-3 -16 -7 -34 -10 -41 -2 -7 1 -23 6 -37 13 -33 43 -32
69 3 l21 27 -7 -49 c-5 -40 -16 -63 -55 -110 -54 -66 -112 -179 -128 -248 -14
-61 -12 -141 3 -162 48 -65 134 115 178 369 6 39 15 77 20 86 4 9 42 42 84 74
69 53 88 75 66 75 -4 0 -38 -22 -74 -50 -36 -27 -68 -50 -71 -50 -2 0 0 17 5
38 11 47 11 92 1 92 -5 0 -22 -20 -40 -45 -42 -60 -56 -59 -48 5 7 54 -9 72
-20 23z m47 -275 c-28 -147 -83 -305 -112 -324 -16 -9 -29 15 -29 55 0 51 38
169 76 234 40 69 67 107 73 101 2 -2 -2 -32 -8 -66z"/>
</g>
</svg>
